# xmcd
#
# Track frame offsets: 
#        150
#        18880
#        38682
#        58877
#        77932
#        96365
#        114782
#        128512
#        148262
#        167197
#
# Disc length: 2512 seconds
#
# Revision: 2
# Processed by: cddbd v1.5.2PL0 Copyright (c) Steve Scherf et al.
# Submitted via: ExactAudioCopyFreeDBPlugin 1.0
#
DISCID=8009ce0a
DTITLE=2個女生 - 2個女生 Ready to Fly
DYEAR=1900
DGENRE=
TTITLE0=Ready to fly
TTITLE1=她一定很爱你
TTITLE2=不在乎
TTITLE3=崩潰
TTITLE4=犯了錯
TTITLE5=打掃
TTITLE6=Summer Holidays
TTITLE7=洒脱
TTITLE8=在夢裡
TTITLE9=Eternal Love
EXTD=
EXTT0=
EXTT1=
EXTT2=
EXTT3=
EXTT4=
EXTT5=
EXTT6=
EXTT7=
EXTT8=
EXTT9=
PLAYORDER=
